<svg width="200" height="200" viewBox="0 0 200 200" fill="none" xmlns="http://www.w3.org/2000/svg">
<path d="M128.416 73.5092C120.853 70.8174 116.862 65.874 108.916 67.0092C105.431 67.507 100.416 70.0092 100.416 70.0092C100.416 70.0092 82.3753 62.3462 72.4156 67.0092C61.2508 72.2364 62.5893 83.5646 56.9156 94.5092C51.9315 104.124 46.6439 108.818 44.9156 119.509C41.9285 137.987 45.9514 153.964 61.4156 164.509C66.1821 167.76 69.594 168.281 74.9156 170.509C84.7179 174.614 89.8296 179.077 100.416 180.009C113.012 181.118 121.053 178.983 131.916 172.509C144.935 164.75 153.2 156.92 155.916 142.009C157.866 131.303 153.338 125.22 151.416 114.509C148.953 100.789 155.319 88.1936 144.416 79.5092C139.196 75.3516 134.702 75.747 128.416 73.5092Z" fill="white" stroke="black" stroke-width="6" stroke-linejoin="round"/>
<path d="M93 146.276C97.5 140.276 106.5 138.276 112.5 146.276" stroke="black" stroke-width="6" stroke-linecap="round"/>
<path d="M80.8975 107.848C78.0458 104.997 74.6506 108.646 70.6314 108.989C67.0736 109.292 65.089 108.666 62.6466 111.27C60.2089 113.87 61.2695 113.996 60.9355 117.544C60.6816 120.242 58.0838 121.537 60.9355 124.959C63.7873 128.381 67.2114 125.977 71.2017 125.529C74.1131 125.203 75.8893 125.801 78.0458 123.818C80.2332 121.807 79.7875 120.466 80.3272 117.544C80.9394 114.23 83.7493 110.7 80.8975 107.848Z" fill="black"/>
<circle cx="76.1497" cy="113.04" r="2.85172" fill="white"/>
<circle cx="67.5946" cy="114.751" r="2.28137" fill="white"/>
<ellipse cx="69.8759" cy="121.596" rx="3.42206" ry="2.28137" fill="white"/>
<path d="M120.256 104.082C123.108 101.23 126.503 104.88 130.522 105.222C134.08 105.526 136.065 104.899 138.507 107.504C140.945 110.103 139.884 110.23 140.218 113.778C140.472 116.475 143.07 117.77 140.218 121.192C137.366 124.614 133.942 122.21 129.952 121.762C127.041 121.436 125.264 122.034 123.108 120.051C120.92 118.04 121.366 116.7 120.827 113.778C120.214 110.463 117.404 106.933 120.256 104.082Z" fill="black"/>
<circle cx="2.85172" cy="2.85172" r="2.85172" transform="matrix(-1 0 0 1 127.856 106.422)" fill="white"/>
<circle cx="2.28137" cy="2.28137" r="2.28137" transform="matrix(-1 0 0 1 135.841 108.703)" fill="white"/>
<ellipse cx="3.42206" cy="2.28137" rx="3.42206" ry="2.28137" transform="matrix(-1 0 0 1 134.7 115.548)" fill="white"/>
<path d="M95.4156 70.5091C94.4156 68.5091 93.9156 53.5092 91.9156 52.5091C90.9263 52.0145 84.4156 46.0092 67.4156 54.0092C50.4156 60.5092 40.6575 55.7834 41.4156 53.5092C42.4814 50.3119 61.9156 28.5092 78.9156 29.0092C85.9156 28.0092 97.4156 28.5091 99.9156 38.0092C103.804 31.9959 115.916 30.0092 127.416 32.5092C142.916 36.5092 154.646 59.6168 156.416 63.5092C157.794 66.5415 140.416 62.5092 130.916 60.5092C121.416 58.5092 105.864 52.5092 105.416 52.5091C104.416 52.509 106.916 66.509 105.916 70.0091C104.916 73.5092 103.538 74.361 100.916 74.5091C98.2639 74.6589 96.4156 72.5091 95.4156 70.5091Z" fill="#13AE5C"/>
<path d="M91.9156 52.5091L93.2573 49.8259H93.2573L91.9156 52.5091ZM100.916 74.5091L100.746 71.5139L100.916 74.5091ZM105.916 70.0091L108.8 70.8332L105.916 70.0091ZM105.416 52.5091L105.415 55.5091L105.416 52.5091ZM99.9156 38.0092L97.0144 38.7727C97.3168 39.9219 98.2691 40.7843 99.4426 40.9717C100.616 41.1591 101.79 40.6362 102.435 39.6383L99.9156 38.0092ZM78.9156 29.0092L78.8274 32.0079L79.0849 32.0155L79.3399 31.979L78.9156 29.0092ZM41.4156 53.5092L44.2617 54.4579V54.4579L41.4156 53.5092ZM156.416 63.5092L153.685 64.7506H153.685L156.416 63.5092ZM127.416 32.5092L128.165 29.6044L128.109 29.59L128.053 29.5777L127.416 32.5092ZM67.4156 54.0092L68.487 56.8114L68.5917 56.7714L68.693 56.7237L67.4156 54.0092ZM91.9156 52.5091L90.5739 55.1924C90.0677 54.9393 89.8371 54.6056 89.8023 54.5551C89.7502 54.4794 89.7636 54.4785 89.8197 54.6165C89.9321 54.8934 90.0767 55.377 90.2343 56.1008C90.5454 57.529 90.813 59.4375 91.0624 61.4952C91.3003 63.458 91.5356 65.6871 91.7525 67.3757C91.8641 68.2446 91.9822 69.0664 92.1116 69.7559C92.2196 70.3316 92.3954 71.177 92.7323 71.8508L95.4156 70.5091L98.0988 69.1675C98.1857 69.3413 98.1271 69.2804 98.0086 68.6491C97.9115 68.1316 97.8108 67.4456 97.7036 66.6114C97.483 64.8937 97.2809 62.9354 97.0188 60.7732C96.7682 58.7059 96.4733 56.5519 96.0969 54.8238C95.9108 53.9695 95.6803 53.1015 95.3787 52.3588C95.2277 51.9871 95.0243 51.5595 94.7446 51.1531C94.4824 50.7721 94.0134 50.204 93.2573 49.8259L91.9156 52.5091ZM95.4156 70.5091L92.7323 71.8508C93.8547 74.0957 96.5284 77.7618 101.085 77.5044L100.916 74.5091L100.746 71.5139C100.346 71.5366 99.9449 71.4108 99.4716 71.0147C98.9613 70.5877 98.4776 69.9251 98.0988 69.1675L95.4156 70.5091ZM100.916 74.5091L101.085 77.5044C102.647 77.4161 104.424 77.0969 105.953 75.8141C107.43 74.5743 108.239 72.7978 108.8 70.8332L105.916 70.0091L103.031 69.185C102.592 70.7206 102.213 71.1199 102.096 71.2181C102.03 71.2733 101.807 71.454 100.746 71.5139L100.916 74.5091ZM105.916 70.0091L108.8 70.8332C109.204 69.4204 109.191 67.4113 109.116 65.6684C109.034 63.7763 108.839 61.6263 108.652 59.6621C108.46 57.6509 108.281 55.8737 108.208 54.5801C108.169 53.9144 108.169 53.5215 108.183 53.3425C108.192 53.2186 108.194 53.3908 108.093 53.6748C108.044 53.8136 107.895 54.1968 107.533 54.5879C107.109 55.0457 106.38 55.5092 105.415 55.5091L105.416 52.5091L105.416 49.5091C104.388 49.509 103.604 49.9999 103.131 50.5109C102.719 50.9552 102.528 51.4174 102.442 51.6596C102.267 52.1504 102.219 52.6268 102.199 52.8925C102.154 53.4928 102.177 54.2209 102.217 54.9224C102.3 56.3632 102.496 58.3047 102.679 60.231C102.867 62.2043 103.047 64.2106 103.121 65.9279C103.202 67.7944 103.127 68.8478 103.031 69.185L105.916 70.0091ZM99.9156 38.0092L102.817 37.2458C101.22 31.1763 96.677 28.0754 91.9448 26.6922C87.3126 25.3381 82.2126 25.5077 78.4914 26.0393L78.9156 29.0092L79.3399 31.979C82.6186 31.5107 86.7687 31.4302 90.2614 32.4512C93.6542 33.4429 96.1116 35.342 97.0144 38.7727L99.9156 38.0092ZM78.9156 29.0092L79.0038 26.0105C69.3573 25.7268 59.514 31.6763 52.2974 37.5452C48.61 40.5441 45.4378 43.6623 43.1042 46.2549C41.9382 47.5503 40.9608 48.7375 40.2238 49.7339C39.5738 50.6127 38.8723 51.6525 38.5696 52.5605L41.4156 53.5092L44.2617 54.4579C44.2254 54.5666 44.3643 54.2257 45.0475 53.3021C45.6437 52.4961 46.4923 51.4593 47.5638 50.2689C49.7051 47.8899 52.6538 44.9891 56.0831 42.2002C63.1001 36.4935 71.474 31.7916 78.8274 32.0079L78.9156 29.0092ZM156.416 63.5092L159.147 62.2678C158.199 60.1836 154.72 53.2303 149.461 46.2453C144.291 39.3767 136.957 31.8733 128.165 29.6044L127.416 32.5092L126.666 35.414C133.374 37.1451 139.656 43.1955 144.668 49.8538C149.592 56.3957 152.863 62.9423 153.685 64.7506L156.416 63.5092ZM127.416 32.5092L128.053 29.5777C121.958 28.2527 115.646 28.0998 110.254 29.1189C104.983 30.1152 99.9985 32.3563 97.3964 36.3802L99.9156 38.0092L102.435 39.6383C103.721 37.6488 106.737 35.8899 111.368 35.0145C115.879 34.162 121.373 34.2657 126.778 35.4407L127.416 32.5092ZM105.416 52.5091L105.415 55.5091C105.105 55.5091 104.869 55.4571 104.853 55.454C104.785 55.4402 104.739 55.4279 104.729 55.4254C104.708 55.4197 104.715 55.4211 104.769 55.438C104.87 55.47 105.034 55.5247 105.272 55.6067C105.742 55.769 106.408 56.0057 107.248 56.3045C108.917 56.8979 111.217 57.7165 113.803 58.5986C118.937 60.3496 125.352 62.4037 130.298 63.4449L130.916 60.5092L131.534 57.5736C126.979 56.6147 120.868 54.6688 115.74 52.9198C113.195 52.0519 110.929 51.2454 109.259 50.6514C108.429 50.3564 107.732 50.1087 107.229 49.935C106.98 49.8491 106.755 49.7729 106.574 49.716C106.487 49.6885 106.38 49.6559 106.273 49.6274C106.221 49.6135 106.139 49.5925 106.042 49.573C105.998 49.5641 105.74 49.5092 105.416 49.5091L105.416 52.5091ZM130.916 60.5092L130.298 63.4449C134.979 64.4304 141.812 65.9633 147.259 66.8568C149.949 67.2979 152.514 67.621 154.381 67.6008C155.209 67.5918 156.406 67.5231 157.418 67.0306C157.979 66.7575 158.821 66.1878 159.251 65.0985C159.698 63.9675 159.447 62.9274 159.147 62.2678L156.416 63.5092L153.685 64.7506C153.557 64.4701 153.332 63.7538 153.67 62.8959C153.992 62.0797 154.593 61.7323 154.793 61.6353C155.081 61.4949 155.072 61.593 154.316 61.6011C153.016 61.6152 150.9 61.3738 148.231 60.9359C142.959 60.0713 136.352 58.588 131.534 57.5736L130.916 60.5092ZM41.4156 53.5092L38.5696 52.5605C38.0823 54.0221 38.5832 55.3234 39.1379 56.1383C39.6847 56.9416 40.4456 57.554 41.1946 58.0153C42.7166 58.9526 44.8197 59.6522 47.3225 60.018C52.384 60.7577 59.5938 60.2117 68.487 56.8114L67.4156 54.0092L66.3442 51.207C58.2374 54.3067 52.0682 54.6478 48.1902 54.081C46.2232 53.7936 44.9664 53.2916 44.3408 52.9063C44.0159 52.7063 44.006 52.6272 44.0978 52.7621C44.1977 52.9087 44.5594 53.5648 44.2617 54.4579L41.4156 53.5092ZM67.4156 54.0092L68.693 56.7237C76.7962 52.9104 82.0765 52.5832 85.2383 53.0425C86.8264 53.2732 87.9585 53.7128 88.7191 54.0931C89.1031 54.2851 89.4096 54.4706 89.6581 54.6297C89.801 54.7213 89.8841 54.7773 90.0261 54.8699C90.1068 54.9225 90.333 55.0719 90.5739 55.1924L91.9156 52.5091L93.2573 49.8259C93.3745 49.8845 93.4339 49.9291 93.3022 49.8433C93.2319 49.7974 93.057 49.6815 92.8941 49.5772C92.5307 49.3444 92.0334 49.0421 91.4023 48.7266C90.1327 48.0917 88.3891 47.4373 86.1009 47.1048C81.5101 46.4379 75.0351 47.108 66.1382 51.2947L67.4156 54.0092Z" fill="black"/>
<path d="M76.6811 35.6697C81.4325 34.6956 88.8874 35.5874 89.0587 36.6923C89.23 37.7971 81.8027 37.9666 77.195 38.9842C72.4859 40.0243 65.7921 42.7887 65.2132 41.9733C64.6342 41.158 71.6748 36.6961 76.6811 35.6697Z" fill="#036839"/>
<path d="M124.377 38.8595C119.922 36.9429 112.441 36.3058 112.049 37.3531C111.657 38.4003 118.896 40.071 123.202 42.0011C127.603 43.9737 133.598 48.0369 134.33 47.3558C135.062 46.6746 129.072 40.8789 124.377 38.8595Z" fill="#036839"/>
</svg>
