<svg width="200" height="200" viewBox="0 0 200 200" fill="none" xmlns="http://www.w3.org/2000/svg">
<path d="M128.416 73.5092C120.853 70.8174 116.862 65.874 108.916 67.0092C105.431 67.507 100.416 70.0092 100.416 70.0092C100.416 70.0092 82.3753 62.3462 72.4156 67.0092C61.2508 72.2364 62.5893 83.5646 56.9156 94.5092C51.9315 104.124 46.6439 108.818 44.9156 119.509C41.9285 137.987 45.9514 153.964 61.4156 164.509C66.1821 167.76 69.594 168.281 74.9156 170.509C84.7179 174.614 89.8296 179.077 100.416 180.009C113.012 181.118 121.053 178.983 131.916 172.509C144.935 164.75 153.2 156.92 155.916 142.009C157.866 131.303 153.338 125.22 151.416 114.509C148.953 100.789 155.319 88.1936 144.416 79.5092C139.196 75.3516 134.702 75.747 128.416 73.5092Z" fill="white" stroke="black" stroke-width="6" stroke-linejoin="round"/>
<circle cx="70.4156" cy="114.009" r="5.5" fill="black"/>
<circle cx="130.416" cy="110.009" r="5.5" fill="black"/>
<path d="M76.4156 133.009C76.4156 133.009 82.8882 140.429 88.4156 143.009C96.7389 146.895 103.551 147.804 111.916 144.009C118.078 141.213 124.416 132.009 124.416 132.009" stroke="black" stroke-width="6" stroke-linecap="round"/>
<path d="M95.4156 70.5092C94.4156 68.5092 93.9156 53.5092 91.9156 52.5091C90.9263 52.0145 76.5072 50.4967 66.9156 44.5092C57.1156 38.3916 52.1575 27.7833 52.9156 25.5091C53.9814 22.3119 68.9847 15.6675 83.9156 21.0092C89.999 23.1856 97.4156 28.5091 99.9156 38.0092C103.804 31.9959 109.392 23.468 115.416 21.5092C130.002 16.766 149.146 23.6167 150.916 27.5091C152.294 30.5415 141.626 42.5799 128.916 48.5092C118.573 53.3343 105.864 52.5092 105.416 52.5091C104.416 52.5091 106.916 66.5091 105.916 70.0092C104.916 73.5092 103.538 74.361 100.916 74.5092C98.2639 74.659 96.4156 72.5092 95.4156 70.5092Z" fill="#13AE5C"/>
<path d="M91.9156 52.5091L93.2573 49.8259H93.2573L91.9156 52.5091ZM100.916 74.5092L100.746 71.5139L100.916 74.5092ZM105.416 52.5091L105.415 55.5091H105.415L105.416 52.5091ZM99.9156 38.0092L97.0144 38.7727C97.3168 39.9219 98.2691 40.7843 99.4426 40.9717C100.616 41.1591 101.79 40.6362 102.435 39.6383L99.9156 38.0092ZM83.9156 21.0092L84.9262 18.1845V18.1845L83.9156 21.0092ZM52.9156 25.5091L55.7616 26.4579V26.4579L52.9156 25.5091ZM150.916 27.5091L148.184 28.7505L148.184 28.7505L150.916 27.5091ZM115.416 21.5092L116.343 24.3622L115.416 21.5092ZM128.916 48.5092L127.647 45.7905L128.916 48.5092ZM66.9156 44.5092L68.5042 41.9644L66.9156 44.5092ZM91.9156 52.5091L90.5739 55.1924C90.0677 54.9393 89.8371 54.6056 89.8023 54.5551C89.7502 54.4794 89.7636 54.4785 89.8197 54.6166C89.9321 54.8934 90.0767 55.377 90.2343 56.1008C90.5454 57.529 90.813 59.4375 91.0624 61.4952C91.3003 63.458 91.5356 65.6871 91.7525 67.3757C91.8641 68.2446 91.9822 69.0664 92.1116 69.7559C92.2196 70.3316 92.3954 71.177 92.7323 71.8508L95.4156 70.5092L98.0988 69.1675C98.1857 69.3413 98.1271 69.2804 98.0086 68.6491C97.9115 68.1316 97.8108 67.4456 97.7036 66.6114C97.483 64.8937 97.2809 62.9354 97.0188 60.7732C96.7682 58.7059 96.4733 56.5519 96.0969 54.8238C95.9108 53.9695 95.6803 53.1015 95.3787 52.3588C95.2277 51.9871 95.0243 51.5595 94.7446 51.1531C94.4824 50.7721 94.0134 50.204 93.2573 49.8259L91.9156 52.5091ZM95.4156 70.5092L92.7323 71.8508C93.8547 74.0957 96.5284 77.7618 101.085 77.5044L100.916 74.5092L100.746 71.5139C100.346 71.5366 99.9449 71.4108 99.4716 71.0147C98.9613 70.5877 98.4776 69.9251 98.0988 69.1675L95.4156 70.5092ZM100.916 74.5092L101.085 77.5044C102.647 77.4161 104.424 77.0969 105.953 75.8141C107.43 74.5743 108.239 72.7978 108.8 70.8333L105.916 70.0092L103.031 69.185C102.592 70.7206 102.213 71.12 102.096 71.2181C102.03 71.2733 101.807 71.454 100.746 71.5139L100.916 74.5092ZM105.916 70.0092L108.8 70.8333C109.204 69.4204 109.191 67.4113 109.116 65.6684C109.034 63.7763 108.839 61.6263 108.652 59.6622C108.46 57.6509 108.281 55.8737 108.208 54.5801C108.169 53.9144 108.169 53.5215 108.182 53.3425C108.192 53.2186 108.194 53.3908 108.093 53.6749C108.044 53.8136 107.895 54.1968 107.533 54.5879C107.109 55.0457 106.38 55.5092 105.415 55.5091L105.416 52.5091L105.416 49.5091C104.388 49.5091 103.604 50 103.131 50.5109C102.719 50.9552 102.528 51.4174 102.442 51.6596C102.267 52.1504 102.219 52.6268 102.199 52.8925C102.154 53.4928 102.177 54.221 102.217 54.9224C102.3 56.3632 102.496 58.3047 102.679 60.231C102.867 62.2043 103.047 64.2106 103.121 65.9279C103.202 67.7944 103.127 68.8478 103.031 69.185L105.916 70.0092ZM99.9156 38.0092L102.817 37.2458C99.9929 26.5147 91.6379 20.5857 84.9262 18.1845L83.9156 21.0092L82.9051 23.8339C88.3601 25.7855 94.8383 30.5036 97.0144 38.7727L99.9156 38.0092ZM83.9156 21.0092L84.9262 18.1845C76.795 15.2755 68.6981 15.6423 62.5098 17.1414C59.4136 17.8914 56.7149 18.9437 54.6582 20.0803C53.6335 20.6466 52.7073 21.2673 51.9574 21.9282C51.273 22.5316 50.4521 23.4128 50.0695 24.5604L52.9156 25.5091L55.7616 26.4579C55.6455 26.8061 55.5266 26.7803 55.925 26.4292C56.258 26.1357 56.7953 25.7545 57.5604 25.3317C59.0832 24.4902 61.2683 23.6157 63.9225 22.9727C69.2351 21.6857 76.1053 21.4012 82.9051 23.8339L83.9156 21.0092ZM150.916 27.5091L153.647 26.2678C153.119 25.1068 152.157 24.2081 151.301 23.5546C150.378 22.8503 149.247 22.1839 147.996 21.5697C145.488 20.3381 142.254 19.1959 138.659 18.3505C131.519 16.6715 122.486 16.0555 114.488 18.6563L115.416 21.5092L116.343 24.3622C122.932 22.2198 130.764 22.6575 137.285 24.1912C140.521 24.952 143.316 25.956 145.351 26.9553C146.372 27.4567 147.14 27.927 147.66 28.3239C148.247 28.7715 148.27 28.9384 148.184 28.7505L150.916 27.5091ZM115.416 21.5092L114.488 18.6563C110.638 19.9081 107.281 23.0893 104.571 26.3058C101.795 29.6003 99.3295 33.3908 97.3964 36.3802L99.9156 38.0092L102.435 39.6383C104.39 36.6143 106.663 33.1343 109.159 30.1718C111.721 27.1314 114.169 25.0692 116.343 24.3622L115.416 21.5092ZM105.416 52.5091L105.415 55.5091C105.363 55.5091 105.339 55.5075 105.518 55.5148C105.642 55.5198 105.816 55.5267 106.034 55.5337C106.47 55.5476 107.074 55.5617 107.818 55.5627C109.304 55.5648 111.348 55.5149 113.717 55.3072C118.416 54.8952 124.567 53.8482 130.184 51.228L128.916 48.5092L127.647 45.7905C118.043 50.2711 106.118 49.5092 105.416 49.5091L105.416 52.5091ZM128.916 48.5092L130.184 51.228C136.913 48.089 143.042 43.3708 147.332 39.0322C149.474 36.8661 151.243 34.7084 152.408 32.798C152.986 31.8502 153.481 30.8579 153.767 29.8814C154.029 28.9862 154.259 27.6155 153.647 26.2678L150.916 27.5091L148.184 28.7505C147.916 28.1609 148.115 27.8297 148.008 28.1964C147.924 28.4819 147.713 28.9739 147.286 29.6738C146.441 31.0586 145.007 32.8498 143.065 34.8135C139.188 38.7345 133.629 43.0002 127.647 45.7905L128.916 48.5092ZM52.9156 25.5091L50.0695 24.5604C49.7465 25.5296 49.8269 26.5168 49.9343 27.1961C50.055 27.959 50.2859 28.7756 50.5849 29.5999C51.1854 31.2556 52.1488 33.1849 53.4298 35.1856C55.9894 39.1831 59.9778 43.7149 65.327 47.0541L66.9156 44.5092L68.5042 41.9644C64.0534 39.186 60.6627 35.3548 58.4828 31.9502C57.3941 30.2499 56.6476 28.7183 56.2254 27.5542C56.013 26.9686 55.9044 26.5355 55.8607 26.2591C55.8038 25.899 55.8951 26.0573 55.7616 26.4579L52.9156 25.5091ZM66.9156 44.5092L65.327 47.0541C70.5346 50.3049 76.9105 52.2715 81.9373 53.4852C84.4779 54.0986 86.7336 54.5331 88.3918 54.8418C89.2385 54.9994 89.8827 55.1157 90.3679 55.2118C90.6091 55.2596 90.7672 55.2939 90.8634 55.3174C91.0532 55.3639 90.8539 55.3325 90.5739 55.1924L91.9156 52.5091L93.2573 49.8259C92.8535 49.624 92.4257 49.5227 92.2909 49.4897C92.0625 49.4338 91.8001 49.3789 91.5335 49.3261C91.0034 49.2211 90.2839 49.0909 89.4898 48.9431C87.8664 48.641 85.7323 48.2291 83.3455 47.6528C78.5176 46.4871 72.8882 44.7011 68.5042 41.9644L66.9156 44.5092Z" fill="black"/>
<path d="M79.4156 29.0092C83.8536 30.9659 89.4156 36.0092 88.9156 37.0092C88.4156 38.0092 82.2617 33.8472 77.9156 32.0092C73.4739 30.1308 66.4156 28.5092 66.4156 27.5092C66.4156 26.5092 74.7394 26.9475 79.4156 29.0092Z" fill="#036839"/>
<path d="M121.447 29.5231C117.009 31.4798 111.447 36.5231 111.947 37.5231C112.447 38.5231 118.601 34.3611 122.947 32.5231C127.389 30.6447 134.447 29.0231 134.447 28.0231C134.447 27.0231 126.123 27.4615 121.447 29.5231Z" fill="#036839"/>
</svg>
