<svg width="200" height="200" viewBox="0 0 200 200" fill="none" xmlns="http://www.w3.org/2000/svg">
<path d="M129.416 51.0048C121.853 48.313 117.862 43.3696 109.916 44.5048C106.431 45.0026 101.416 47.5048 101.416 47.5048C101.416 47.5048 83.3753 39.8418 73.4156 44.5048C62.2508 49.732 63.5893 61.0602 57.9156 72.0048C52.9315 81.6193 47.6439 86.314 45.9156 97.0048C42.9285 115.483 46.9514 131.459 62.4156 142.005C67.1821 145.255 70.594 145.776 75.9156 148.005C85.7179 152.109 90.8296 156.573 101.416 157.505C114.012 158.614 122.053 156.479 132.916 150.005C145.935 142.245 154.2 134.416 156.916 119.505C158.866 108.799 154.338 102.716 152.416 92.0048C149.953 78.2851 156.319 65.6892 145.416 57.0048C140.196 52.8472 135.702 53.2426 129.416 51.0048Z" fill="white" stroke="black" stroke-width="6" stroke-linejoin="round"/>
<path d="M118.379 128.512C120.879 126.012 113.285 113.984 103.379 114.512C92.7618 115.078 85.3791 128.012 88.8791 129.512C92.3791 131.012 95.0923 126.443 102.879 125.512C110.866 124.558 115.879 131.012 118.379 128.512Z" fill="black" stroke="black" stroke-width="3" stroke-linecap="round"/>
<path d="M64 83.4956C64 83.4956 85.5 90.4956 83.5 93.9956C81.5 97.4956 65 95.4956 65 95.4956" stroke="black" stroke-width="4" stroke-linecap="round"/>
<path d="M139.631 81.4956C139.631 81.4956 118.131 88.4956 120.131 91.9956C122.131 95.4956 138.631 93.4956 138.631 93.4956" stroke="black" stroke-width="4" stroke-linecap="round"/>
<ellipse cx="62.5" cy="98.4956" rx="8.5" ry="5" fill="#B5E9FF"/>
<ellipse cx="8.5" cy="5" rx="8.5" ry="5" transform="matrix(-1 0 0 1 149 92.4956)" fill="#B5E9FF"/>
<ellipse cx="37.625" cy="79.7456" rx="10.625" ry="6.25" fill="#B5E9FF"/>
<ellipse cx="10.625" cy="6.25" rx="10.625" ry="6.25" transform="matrix(-1 0 0 1 177.25 72.4956)" fill="#B5E9FF"/>
</svg>
