<svg width="200" height="200" viewBox="0 0 200 200" fill="none" xmlns="http://www.w3.org/2000/svg">
<path d="M128.416 51.0048C120.853 48.313 116.862 43.3696 108.916 44.5048C105.431 45.0026 100.416 47.5048 100.416 47.5048C100.416 47.5048 82.3753 39.8418 72.4156 44.5048C61.2508 49.732 62.5893 61.0602 56.9156 72.0048C51.9315 81.6193 46.6439 86.314 44.9156 97.0048C41.9285 115.483 45.9514 131.459 61.4156 142.005C66.1821 145.255 69.594 145.776 74.9156 148.005C84.7179 152.109 89.8296 156.573 100.416 157.505C113.012 158.614 121.053 156.479 131.916 150.005C144.935 142.245 153.2 134.416 155.916 119.505C157.866 108.799 153.338 102.716 151.416 92.0048C148.953 78.2851 155.319 65.6892 144.416 57.0048C139.196 52.8472 134.702 53.2426 128.416 51.0048Z" fill="white" stroke="black" stroke-width="6" stroke-linejoin="round"/>
<path d="M93 123.772C97.5 117.772 106.5 115.772 112.5 123.772" stroke="black" stroke-width="6" stroke-linecap="round"/>
<path d="M80.8975 85.3439C78.0458 82.4922 74.6506 86.1419 70.6313 86.4846C67.0736 86.788 65.089 86.1614 62.6465 88.766C60.2088 91.3656 61.2694 91.4917 60.9355 95.0398C60.6816 97.7375 58.0838 99.0322 60.9355 102.454C63.7872 105.876 67.2113 103.472 71.2017 103.025C74.113 102.698 75.8893 103.296 78.0458 101.314C80.2332 99.3021 79.7875 97.962 80.3272 95.0398C80.9394 91.7253 83.7492 88.1957 80.8975 85.3439Z" fill="black"/>
<circle cx="76.1497" cy="90.536" r="2.85172" fill="white"/>
<circle cx="67.5946" cy="92.2471" r="2.28137" fill="white"/>
<ellipse cx="69.8759" cy="99.0912" rx="3.42206" ry="2.28137" fill="white"/>
<path d="M120.256 81.5773C123.108 78.7256 126.503 82.3753 130.522 82.718C134.08 83.0214 136.065 82.3948 138.507 84.9994C140.945 87.599 139.884 87.7251 140.218 91.2732C140.472 93.9709 143.07 95.2656 140.218 98.6876C137.366 102.11 133.942 99.7055 129.952 99.258C127.041 98.9315 125.264 99.5299 123.108 97.5469C120.92 95.5355 121.366 94.1954 120.827 91.2732C120.214 87.9587 117.404 84.4291 120.256 81.5773Z" fill="black"/>
<circle cx="2.85172" cy="2.85172" r="2.85172" transform="matrix(-1 0 0 1 127.856 83.9177)" fill="white"/>
<circle cx="2.28137" cy="2.28137" r="2.28137" transform="matrix(-1 0 0 1 135.841 86.199)" fill="white"/>
<ellipse cx="3.42206" cy="2.28137" rx="3.42206" ry="2.28137" transform="matrix(-1 0 0 1 134.7 93.0432)" fill="white"/>
</svg>
