<svg width="200" height="200" viewBox="0 0 200 200" fill="none" xmlns="http://www.w3.org/2000/svg">
<path d="M128.416 51.0048C120.853 48.313 116.862 43.3696 108.916 44.5048C105.431 45.0026 100.416 47.5048 100.416 47.5048C100.416 47.5048 82.3753 39.8418 72.4156 44.5048C61.2508 49.732 62.5893 61.0602 56.9156 72.0048C51.9315 81.6193 46.6439 86.314 44.9156 97.0048C41.9285 115.483 45.9514 131.459 61.4156 142.005C66.1821 145.255 69.594 145.776 74.9156 148.005C84.7179 152.109 89.8296 156.573 100.416 157.505C113.012 158.614 121.053 156.479 131.916 150.005C144.935 142.245 153.2 134.416 155.916 119.505C157.866 108.799 153.338 102.716 151.416 92.0048C148.953 78.2851 155.319 65.6892 144.416 57.0048C139.196 52.8472 134.702 53.2426 128.416 51.0048Z" fill="white" stroke="black" stroke-width="6" stroke-linejoin="round"/>
<circle cx="70.4156" cy="91.5048" r="5.5" fill="black"/>
<circle cx="130.416" cy="87.5048" r="5.5" fill="black"/>
<path d="M74.9156 78.0048C74.4156 81.5048 73.1708 84.2191 69.4156 87.5048C65.5949 90.8479 59.9156 91.5048 59.9156 91.5048" stroke="black" stroke-width="6" stroke-linecap="round"/>
<path d="M124.916 73.0048C125.416 76.5048 126.66 79.2191 130.416 82.5048C134.236 85.8479 139.916 86.5048 139.916 86.5048" stroke="black" stroke-width="6" stroke-linecap="round"/>
<path d="M88.8312 123.264C93.3312 117.264 109.331 116.264 115.331 124.264" stroke="black" stroke-width="6" stroke-linecap="round"/>
</svg>
