<svg width="200" height="200" viewBox="0 0 200 200" fill="none" xmlns="http://www.w3.org/2000/svg">
<path d="M128.416 73.5092C120.853 70.8174 116.862 65.874 108.916 67.0092C105.431 67.507 100.416 70.0092 100.416 70.0092C100.416 70.0092 82.3753 62.3462 72.4156 67.0092C61.2508 72.2364 62.5893 83.5646 56.9156 94.5092C51.9315 104.124 46.6439 108.818 44.9156 119.509C41.9285 137.987 45.9514 153.964 61.4156 164.509C66.1821 167.76 69.594 168.281 74.9156 170.509C84.7179 174.614 89.8296 179.077 100.416 180.009C113.012 181.118 121.053 178.983 131.916 172.509C144.935 164.75 153.2 156.92 155.916 142.009C157.866 131.303 153.338 125.22 151.416 114.509C148.953 100.789 155.319 88.1936 144.416 79.5092C139.196 75.3516 134.702 75.747 128.416 73.5092Z" fill="white" stroke="black" stroke-width="6" stroke-linejoin="round"/>
<path d="M93 146.276C97.5 140.276 106.5 138.276 112.5 146.276" stroke="black" stroke-width="6" stroke-linecap="round"/>
<path d="M80.8975 107.848C78.0458 104.997 74.6506 108.646 70.6314 108.989C67.0736 109.292 65.089 108.666 62.6466 111.27C60.2089 113.87 61.2695 113.996 60.9355 117.544C60.6816 120.242 58.0838 121.537 60.9355 124.959C63.7873 128.381 67.2114 125.976 71.2017 125.529C74.1131 125.202 75.8893 125.801 78.0458 123.818C80.2332 121.807 79.7875 120.466 80.3272 117.544C80.9394 114.23 83.7493 110.7 80.8975 107.848Z" fill="black"/>
<circle cx="76.1497" cy="113.04" r="2.85172" fill="white"/>
<circle cx="67.5946" cy="114.751" r="2.28137" fill="white"/>
<ellipse cx="69.8759" cy="121.596" rx="3.42206" ry="2.28137" fill="white"/>
<path d="M120.256 104.082C123.108 101.23 126.503 104.88 130.522 105.222C134.08 105.526 136.065 104.899 138.507 107.504C140.945 110.103 139.884 110.23 140.218 113.778C140.472 116.475 143.07 117.77 140.218 121.192C137.366 124.614 133.942 122.21 129.952 121.762C127.041 121.436 125.264 122.034 123.108 120.051C120.92 118.04 121.366 116.7 120.827 113.778C120.214 110.463 117.404 106.933 120.256 104.082Z" fill="black"/>
<circle cx="2.85172" cy="2.85172" r="2.85172" transform="matrix(-1 0 0 1 127.856 106.422)" fill="white"/>
<circle cx="2.28137" cy="2.28137" r="2.28137" transform="matrix(-1 0 0 1 135.841 108.703)" fill="white"/>
<ellipse cx="3.42206" cy="2.28137" rx="3.42206" ry="2.28137" transform="matrix(-1 0 0 1 134.7 115.548)" fill="white"/>
<path d="M95.4156 70.5091C94.4156 68.5091 93.9156 53.5092 91.9156 52.5091C90.9263 52.0144 81.4156 48.9999 73.5 70.0091C56.5 76.5091 35.7419 80.2741 36.5 77.9999C36.9004 76.7987 46.5 66.9999 53 62.4999C52.6162 59.2374 53 56.9999 53 50.4999H64.5L57.4123 42.4999C62.2868 37.532 69.9123 33.9999 74.4123 31.4999C80.5 33.4999 89 34.9999 99 40.9999C102.889 34.9866 112.5 22.9999 115.5 21.9999C118.5 20.9999 131.5 25.4999 139 29.9999C141 33.4999 142.016 37.5036 143.5 40.9999L137.5 44.9999L146.5 47.9999C150.354 55.2982 161.5 61.4999 161.5 63.4999C161.5 65.4999 137 60.3999 133 59.9999C129 59.5999 122.5 48.9999 120.5 48.9999C116.469 48.9999 105.745 52.5091 105.416 52.5091C104.416 52.509 106.916 66.509 105.916 70.0091C104.916 73.5092 103.538 74.3609 100.916 74.5091C98.2639 74.6589 96.4156 72.5091 95.4156 70.5091Z" fill="#CC7347"/>
<path d="M91.9156 52.5091L93.2573 49.8258H93.2573L91.9156 52.5091ZM100.916 74.5091L100.746 71.5139L100.916 74.5091ZM105.416 52.5091L105.415 55.5091H105.415L105.416 52.5091ZM99 40.9999L97.4565 43.5724C98.8436 44.4047 100.641 43.9873 101.519 42.629L99 40.9999ZM74.4123 31.4999L75.3487 28.6498L74.1022 28.2403L72.9554 28.8775L74.4123 31.4999ZM115.5 21.9999L114.551 19.1539L115.5 21.9999ZM36.5 77.9999L33.654 77.0512H33.654L36.5 77.9999ZM73.5 70.0091L74.5714 72.8112L75.8316 72.3294L76.3074 71.0668L73.5 70.0091ZM139 29.9999L141.605 28.5115L141.216 27.8308L140.543 27.4275L139 29.9999ZM143.5 40.9999L145.164 43.4961L147.233 42.1167L146.262 39.8278L143.5 40.9999ZM137.5 44.9999L135.836 42.5038L130.732 45.9063L136.551 47.846L137.5 44.9999ZM146.5 47.9999L149.153 46.5991L148.591 45.5346L147.449 45.1539L146.5 47.9999ZM53 62.4999L54.7076 64.9665L56.1901 63.9402L55.9795 62.1494L53 62.4999ZM53 50.4999V47.4999H50V50.4999H53ZM64.5 50.4999V53.4999H71.1659L66.7455 48.5105L64.5 50.4999ZM57.4123 42.4999L55.2709 40.3989L53.3118 42.3956L55.1668 44.4894L57.4123 42.4999ZM91.9156 52.5091L90.5739 55.1923C90.0677 54.9392 89.8371 54.6055 89.8023 54.5551C89.7502 54.4793 89.7636 54.4785 89.8197 54.6165C89.9321 54.8934 90.0767 55.3769 90.2343 56.1008C90.5454 57.5289 90.813 59.4375 91.0624 61.4951C91.3003 63.4579 91.5356 65.687 91.7525 67.3757C91.8641 68.2446 91.9822 69.0663 92.1116 69.7559C92.2196 70.3316 92.3954 71.1769 92.7323 71.8507L95.4156 70.5091L98.0988 69.1674C98.1857 69.3412 98.1271 69.2803 98.0086 68.649C97.9115 68.1315 97.8108 67.4455 97.7036 66.6113C97.483 64.8937 97.2809 62.9353 97.0188 60.7731C96.7682 58.7058 96.4733 56.5519 96.0969 54.8238C95.9108 53.9695 95.6803 53.1014 95.3787 52.3588C95.2277 51.987 95.0243 51.5594 94.7446 51.1531C94.4824 50.772 94.0134 50.204 93.2573 49.8258L91.9156 52.5091ZM95.4156 70.5091L92.7323 71.8507C93.8547 74.0956 96.5284 77.7617 101.085 77.5043L100.916 74.5091L100.746 71.5139C100.346 71.5365 99.9449 71.4108 99.4716 71.0146C98.9613 70.5876 98.4776 69.925 98.0988 69.1674L95.4156 70.5091ZM100.916 74.5091L101.085 77.5043C102.647 77.416 104.424 77.0968 105.953 75.8141C107.43 74.5743 108.239 72.7977 108.8 70.8332L105.916 70.0091L103.031 69.185C102.592 70.7205 102.213 71.1199 102.096 71.218C102.03 71.2732 101.807 71.454 100.746 71.5139L100.916 74.5091ZM105.916 70.0091L108.8 70.8332C109.204 69.4204 109.191 67.4113 109.116 65.6683C109.034 63.7762 108.839 61.6263 108.652 59.6621C108.46 57.6509 108.281 55.8737 108.208 54.5801C108.17 53.9144 108.169 53.5214 108.183 53.3424C108.192 53.2186 108.194 53.3908 108.093 53.6748C108.044 53.8136 107.895 54.1967 107.533 54.5878C107.109 55.0456 106.38 55.5092 105.415 55.5091L105.416 52.5091L105.416 49.5091C104.388 49.509 103.604 49.9999 103.131 50.5109C102.719 50.9552 102.528 51.4173 102.442 51.6595C102.267 52.1503 102.219 52.6267 102.199 52.8925C102.154 53.4928 102.177 54.2209 102.217 54.9224C102.3 56.3631 102.496 58.3047 102.679 60.2309C102.867 62.2043 103.047 64.2106 103.121 65.9279C103.202 67.7943 103.127 68.8478 103.031 69.185L105.916 70.0091ZM99 40.9999L100.543 38.4275C90.1597 32.1972 81.0375 30.5188 75.3487 28.6498L74.4123 31.4999L73.476 34.3501C79.9625 36.4811 87.8403 37.8027 97.4565 43.5724L99 40.9999ZM115.5 21.9999L114.551 19.1539C113.672 19.4471 112.862 20.0087 112.243 20.492C111.564 21.0223 110.838 21.6808 110.101 22.4041C108.624 23.8542 106.953 25.7126 105.289 27.6868C101.967 31.6295 98.5106 36.2321 96.4808 39.3709L99 40.9999L101.519 42.629C103.378 39.7545 106.672 35.3571 109.877 31.5531C111.478 29.6539 113.014 27.9524 114.305 26.6858C114.952 26.0507 115.499 25.5617 115.935 25.2216C116.431 24.8345 116.578 24.8028 116.449 24.846L115.5 21.9999ZM133 59.9999L132.701 62.9851C133.559 63.0708 135.692 63.436 138.621 63.9514C141.47 64.4528 144.932 65.0697 148.269 65.6112C151.59 66.1501 154.872 66.6285 157.352 66.842C158.565 66.9464 159.736 67.0018 160.665 66.9317C161.094 66.8993 161.728 66.8251 162.341 66.5788C162.836 66.3803 164.5 65.5447 164.5 63.4999H161.5H158.5C158.5 61.7052 159.973 61.0641 160.106 61.0105C160.359 60.909 160.463 60.9299 160.214 60.9487C159.787 60.9809 159.013 60.9628 157.867 60.8641C155.628 60.6713 152.535 60.2248 149.231 59.6887C145.943 59.1552 142.53 58.5471 139.661 58.0422C136.871 57.5513 134.441 57.1291 133.299 57.0148L133 59.9999ZM36.5 77.9999L33.654 77.0512C33.4733 77.5932 33.392 78.2946 33.6144 79.0465C33.8343 79.7898 34.2726 80.3177 34.6796 80.658C35.3926 81.254 36.2038 81.444 36.6062 81.5217C37.5286 81.6998 38.662 81.6892 39.7624 81.6187C42.0665 81.4713 45.2746 80.9804 48.9391 80.2346C56.2973 78.7369 65.8975 76.1277 74.5714 72.8112L73.5 70.0091L72.4286 67.2069C64.1025 70.3904 54.8237 72.9138 47.7424 74.3551C44.187 75.0787 41.2853 75.509 39.3792 75.631C38.3745 75.6953 37.8777 75.6564 37.7437 75.6305C37.6178 75.6062 38.0442 75.6503 38.528 76.0548C38.8205 76.2993 39.1832 76.72 39.368 77.3446C39.5553 77.9778 39.4793 78.5488 39.346 78.9487L36.5 77.9999ZM73.5 70.0091L76.3074 71.0668C80.1329 60.9132 84.1175 57.1908 86.6865 55.8582C89.2162 54.5461 90.8219 55.3164 90.5739 55.1923L91.9156 52.5091L93.2573 49.8258C92.02 49.2072 88.3757 48.2229 83.9238 50.5321C79.5113 52.8209 74.7827 58.0959 70.6926 68.9514L73.5 70.0091ZM139 29.9999L140.543 27.4275C136.567 25.0418 131.239 22.7103 126.534 21.0993C124.176 20.2917 121.901 19.6395 119.971 19.2535C119.008 19.0609 118.075 18.9231 117.228 18.8765C116.444 18.8334 115.463 18.8499 114.551 19.1539L115.5 21.9999L116.449 24.846C116.287 24.9 116.369 24.8384 116.899 24.8675C117.366 24.8932 118 24.978 118.794 25.137C120.38 25.4541 122.386 26.0207 124.591 26.7756C129.011 28.2895 133.933 30.4581 137.457 32.5724L139 29.9999ZM143.5 40.9999L146.262 39.8278C145.557 38.1691 144.993 36.4611 144.259 34.4661C143.555 32.5509 142.732 30.4848 141.605 28.5115L139 29.9999L136.395 31.4884C137.268 33.0151 137.953 34.7009 138.628 36.5365C139.273 38.2925 139.958 40.3344 140.738 42.1721L143.5 40.9999ZM143.5 40.9999L141.836 38.5038L135.836 42.5038L137.5 44.9999L139.164 47.4961L145.164 43.4961L143.5 40.9999ZM161.5 63.4999H164.5C164.5 62.7043 164.233 62.0684 164.029 61.6804C163.814 61.2712 163.552 60.9194 163.319 60.6399C162.857 60.0844 162.268 59.5281 161.685 59.0127C160.539 57.9996 158.896 56.7027 157.361 55.4284C154.062 52.6898 150.766 49.655 149.153 46.5991L146.5 47.9999L143.847 49.4007C146.087 53.6432 150.292 57.3584 153.529 60.0452C155.262 61.4836 156.647 62.5682 157.712 63.5086C158.233 63.9698 158.545 64.2832 158.708 64.4782C158.787 64.5739 158.769 64.5676 158.719 64.4725C158.68 64.3987 158.5 64.0456 158.5 63.4999H161.5ZM137.5 44.9999L136.551 47.846L145.551 50.846L146.5 47.9999L147.449 45.1539L138.449 42.1539L137.5 44.9999ZM105.416 52.5091L105.415 55.5091C105.679 55.5091 105.887 55.4731 105.93 55.4661C106.011 55.4525 106.08 55.438 106.123 55.4285C106.21 55.4092 106.295 55.3877 106.359 55.3709C106.492 55.3358 106.654 55.29 106.824 55.2408C107.169 55.1415 107.646 54.9998 108.194 54.8381C109.304 54.5104 110.776 54.0792 112.357 53.6494C113.942 53.2183 115.607 52.7968 117.101 52.4851C118.651 52.1618 119.821 51.9999 120.5 51.9999V48.9999V45.9999C119.163 45.9999 117.481 46.2768 115.876 46.6115C114.216 46.9577 112.423 47.4135 110.783 47.8597C109.137 48.3071 107.614 48.7533 106.496 49.0835C105.929 49.2508 105.482 49.3833 105.162 49.4758C105 49.5226 104.893 49.5522 104.831 49.5685C104.798 49.5773 104.803 49.5756 104.83 49.5695C104.843 49.5667 104.886 49.5572 104.947 49.547C104.969 49.5434 105.163 49.5091 105.416 49.5091L105.416 52.5091ZM120.5 48.9999V51.9999C119.993 51.9999 119.666 51.8426 119.605 51.8124C119.521 51.7712 119.52 51.7584 119.616 51.8321C119.81 51.982 120.119 52.2669 120.563 52.7323C121.462 53.6752 122.489 54.9006 123.747 56.3314C124.942 57.6894 126.304 59.182 127.668 60.3727C128.899 61.4472 130.681 62.783 132.701 62.9851L133 59.9999L133.299 57.0148C133.319 57.0169 132.788 56.8777 131.613 55.8522C130.571 54.9428 129.433 53.7105 128.253 52.3685C127.136 51.0993 125.913 49.6497 124.906 48.5926C124.396 48.058 123.838 47.5116 123.279 47.0803C122.998 46.8634 122.648 46.6224 122.247 46.4258C121.869 46.2401 121.257 45.9999 120.5 45.9999V48.9999ZM53 62.4999L51.2924 60.0334C47.8394 62.4239 43.6755 66.1333 40.3747 69.3329C38.7111 70.9454 37.2263 72.4677 36.1182 73.6806C35.5671 74.2837 35.0857 74.836 34.7152 75.2989C34.5315 75.5284 34.3506 75.7663 34.1947 75.9969C34.085 76.1592 33.8185 76.5576 33.654 77.0512L36.5 77.9999L39.346 78.9487C39.2315 79.2921 39.087 79.4732 39.165 79.3578C39.197 79.3106 39.2697 79.2105 39.3995 79.0483C39.656 78.7278 40.041 78.2823 40.5478 77.7276C41.5554 76.6247 42.9518 75.1909 44.5507 73.6411C47.7747 70.516 51.6606 67.076 54.7076 64.9665L53 62.4999ZM53 50.4999H50C50 53.6963 49.9063 55.8107 49.8572 57.6331C49.808 59.4567 49.8031 61.0026 50.0205 62.8505L53 62.4999L55.9795 62.1494C55.813 60.7348 55.8082 59.5306 55.855 57.7948C55.9018 56.0579 56 53.8035 56 50.4999H53ZM53 50.4999V53.4999H64.5V50.4999V47.4999H53V50.4999ZM74.4123 31.4999L72.9554 28.8775C68.7881 31.1926 60.5446 35.024 55.2709 40.3989L57.4123 42.4999L59.5537 44.601C64.0289 40.04 71.0366 36.8072 75.8692 34.1224L74.4123 31.4999ZM64.5 50.4999L66.7455 48.5105L59.6578 40.5105L57.4123 42.4999L55.1668 44.4894L62.2545 52.4894L64.5 50.4999Z" fill="black"/>
<path d="M117.36 35.1336C112.758 36.6658 107.646 40.3816 108.05 41.4241C108.454 42.4665 113.317 38.5035 117.816 37.0808C122.415 35.6268 127.687 36.7681 127.781 35.7725C127.875 34.7769 122.209 33.5191 117.36 35.1336Z" fill="#8E4524"/>
<path d="M82.7942 42.0828C87.6254 42.5118 93.4573 44.9477 93.3047 46.0552C93.152 47.1628 87.5055 44.4289 82.7995 44.0828C77.9899 43.729 73.123 46.0561 72.8021 45.109C72.4812 44.1619 77.7038 41.6307 82.7942 42.0828Z" fill="#8E4524"/>
</svg>
